<svg width="136" height="136" viewBox="0 0 136 136" fill="none" xmlns="http://www.w3.org/2000/svg">
<circle cx="68" cy="68" r="66" fill="#071B2F" stroke="#FFDD55" stroke-width="4" stroke-linecap="round" stroke-dasharray="4 4"/>
<g filter="url(#filter0_i_103_6)">
<path d="M38.2632 53L28.1795 72.5033V82.1305H21.0836V72.5033L11 53H19.0503L24.6938 65.1999L30.2959 53H38.2632ZM59.2563 76.9849H48.3842L46.6414 82.1305H39.2134L49.7536 53H57.9699L68.51 82.1305H60.9991L59.2563 76.9849ZM57.4304 71.5074L53.8202 60.8428L50.2516 71.5074H57.4304ZM93.9181 62.3782C93.9181 64.0657 93.5308 65.6149 92.7562 67.0258C91.9816 68.409 90.7921 69.5294 89.1875 70.387C87.583 71.2446 85.5912 71.6734 83.212 71.6734H78.8134V82.1305H71.7175V53H83.212C85.5358 53 87.5 53.4011 89.1045 54.2034C90.7091 55.0057 91.9125 56.1122 92.7147 57.5231C93.517 58.934 93.9181 60.5523 93.9181 62.3782ZM82.6726 66.0299C84.0281 66.0299 85.0379 65.7117 85.7018 65.0754C86.3658 64.4392 86.6977 63.5401 86.6977 62.3782C86.6977 61.2163 86.3658 60.3172 85.7018 59.6809C85.0379 59.0446 84.0281 58.7265 82.6726 58.7265H78.8134V66.0299H82.6726ZM115.746 76.9849H104.874L103.131 82.1305H95.7035L106.244 53H114.46L125 82.1305H117.489L115.746 76.9849ZM113.92 71.5074L110.31 60.8428L106.742 71.5074H113.92Z" fill="#1E1E1E" fill-opacity="0.5"/>
</g>
<path d="M39.5956 53.6889L40.7273 51.5H38.2632H30.2959H29.3341L28.9327 52.3741L24.6888 61.6163L20.4117 52.3702L20.0091 51.5H19.0503H11H8.53584L9.66755 53.6889L19.5836 72.8681V82.1305V83.6305H21.0836H28.1795H29.6795V82.1305V72.8681L39.5956 53.6889ZM46.6414 83.6305H47.717L48.0621 82.6117L49.4599 78.4849H58.1806L59.5784 82.6117L59.9235 83.6305H60.9991H68.51H70.2175H70.6479H71.7175H78.8134H80.3134V82.1305V73.1734H83.212C85.7644 73.1734 88.0159 72.714 89.8946 71.7099C91.7137 70.7376 93.1305 69.4273 94.065 67.7587L94.0711 67.7477C94.9731 66.1047 95.4181 64.3054 95.4181 62.3782C95.4181 60.3255 94.9649 58.4457 94.0187 56.7817C93.0542 55.0855 91.6166 53.7824 89.7754 52.8618C87.9103 51.9292 85.7023 51.5 83.212 51.5H71.7175H70.2175V53V82.1305V82.441L69.9205 81.6201L59.3804 52.4896L59.0223 51.5H57.9699H49.7536H48.7012L48.3431 52.4896L37.8029 81.6201L37.0755 83.6305H39.2134H46.6414ZM103.131 83.6305H104.207L104.552 82.6117L105.95 78.4849H114.671L116.068 82.6117L116.413 83.6305H117.489H125H127.138L126.411 81.6201L115.87 52.4896L115.512 51.5H114.46H106.244H105.191L104.833 52.4896L94.293 81.6201L93.5656 83.6305H95.7035H103.131ZM52.3353 70.0074L53.8285 65.5451L55.339 70.0074H52.3353ZM84.664 63.9925C84.3873 64.2576 83.8226 64.5299 82.6726 64.5299H80.3134V60.2265H82.6726C83.8226 60.2265 84.3873 60.4988 84.664 60.7639C84.9593 61.047 85.1977 61.511 85.1977 62.3782C85.1977 63.2453 84.9593 63.7094 84.664 63.9925ZM108.825 70.0074L110.318 65.5451L111.829 70.0074H108.825Z" stroke="#FFDD55" stroke-width="3"/>
<defs>
<filter id="filter0_i_103_6" x="6.07169" y="50" width="123.204" height="39.1305" filterUnits="userSpaceOnUse" color-interpolation-filters="sRGB">
<feFlood flood-opacity="0" result="BackgroundImageFix"/>
<feBlend mode="normal" in="SourceGraphic" in2="BackgroundImageFix" result="shape"/>
<feColorMatrix in="SourceAlpha" type="matrix" values="0 0 0 0 0 0 0 0 0 0 0 0 0 0 0 0 0 0 127 0" result="hardAlpha"/>
<feOffset dy="4"/>
<feGaussianBlur stdDeviation="2"/>
<feComposite in2="hardAlpha" operator="arithmetic" k2="-1" k3="1"/>
<feColorMatrix type="matrix" values="0 0 0 0 0 0 0 0 0 0 0 0 0 0 0 0 0 0 0.25 0"/>
<feBlend mode="normal" in2="shape" result="effect1_innerShadow_103_6"/>
</filter>
</defs>
</svg>
