<svg width="184" height="165" viewBox="0 0 184 165" fill="none" xmlns="http://www.w3.org/2000/svg">
<path d="M0.847969 0.079987H77.008V28.36H58.808L94.088 75.96L129.088 28.36H110.608V0.079987H183.128V28.36H162.968L108.928 98.36V137H135.248V165H50.408V137H77.008V98.64L22.688 28.36H0.847969V0.079987Z" fill="#FFDD55"/>
<path d="M0.847969 0.079987V-0.920013H-0.152031V0.079987H0.847969ZM77.008 0.079987H78.008V-0.920013H77.008V0.079987ZM77.008 28.36V29.36H78.008V28.36H77.008ZM58.808 28.36V27.36H56.8221L58.0046 28.9554L58.808 28.36ZM94.088 75.96L93.2846 76.5554L94.0912 77.6437L94.8936 76.5524L94.088 75.96ZM129.088 28.36L129.894 28.9524L131.064 27.36H129.088V28.36ZM110.608 28.36H109.608V29.36H110.608V28.36ZM110.608 0.079987V-0.920013H109.608V0.079987H110.608ZM183.128 0.079987H184.128V-0.920013H183.128V0.079987ZM183.128 28.36V29.36H184.128V28.36H183.128ZM162.968 28.36V27.36H162.477L162.176 27.7489L162.968 28.36ZM108.928 98.36L108.136 97.7489L107.928 98.0189V98.36H108.928ZM108.928 137H107.928V138H108.928V137ZM135.248 137H136.248V136H135.248V137ZM135.248 165V166H136.248V165H135.248ZM50.408 165H49.408V166H50.408V165ZM50.408 137V136H49.408V137H50.408ZM77.008 137V138H78.008V137H77.008ZM77.008 98.64H78.008V98.2986L77.7992 98.0285L77.008 98.64ZM22.688 28.36L23.4792 27.7485L23.1789 27.36H22.688V28.36ZM0.847969 28.36H-0.152031V29.36H0.847969V28.36ZM0.847969 1.07999H77.008V-0.920013H0.847969V1.07999ZM76.008 0.079987V28.36H78.008V0.079987H76.008ZM77.008 27.36H58.808V29.36H77.008V27.36ZM58.0046 28.9554L93.2846 76.5554L94.8914 75.3645L59.6114 27.7645L58.0046 28.9554ZM94.8936 76.5524L129.894 28.9524L128.282 27.7676L93.2823 75.3676L94.8936 76.5524ZM129.088 27.36H110.608V29.36H129.088V27.36ZM111.608 28.36V0.079987H109.608V28.36H111.608ZM110.608 1.07999H183.128V-0.920013H110.608V1.07999ZM182.128 0.079987V28.36H184.128V0.079987H182.128ZM183.128 27.36H162.968V29.36H183.128V27.36ZM162.176 27.7489L108.136 97.7489L109.72 98.9711L163.76 28.9711L162.176 27.7489ZM107.928 98.36V137H109.928V98.36H107.928ZM108.928 138H135.248V136H108.928V138ZM134.248 137V165H136.248V137H134.248ZM135.248 164H50.408V166H135.248V164ZM51.408 165V137H49.408V165H51.408ZM50.408 138H77.008V136H50.408V138ZM78.008 137V98.64H76.008V137H78.008ZM77.7992 98.0285L23.4792 27.7485L21.8968 28.9715L76.2168 99.2515L77.7992 98.0285ZM22.688 27.36H0.847969V29.36H22.688V27.36ZM1.84797 28.36V0.079987H-0.152031V28.36H1.84797Z" fill="black"/>
</svg>
